<?xml version="1.0" encoding="UTF-8"?>
<svg id="Capa_2" data-name="Capa 2" xmlns="http://www.w3.org/2000/svg" viewBox="0 0 173.35 35.25">
  <defs>
    <style>
      .cls-1 {
        fill: #fff;
      }

      .cls-2 {
        fill: #f9b233;
      }
    </style>
  </defs>
  <g id="Capa_1-2" data-name="Capa 1">
    <g>
      <path class="cls-2" d="M23.59,3.69c0-2.16,1.72-3.69,4.08-3.69s4.08,1.53,4.08,3.69-1.72,3.69-4.08,3.69-4.08-1.54-4.08-3.69ZM24.14,10.86h7.06v23.82h-7.06V10.86Z"/>
      <path class="cls-2" d="M32.69,28.07c0-5.02,3.99-7.73,13.41-8.73-.14-2.08-1.18-3.44-3.77-3.44-2,0-3.99.84-6.3,2.15l-2.51-4.63c3.02-1.85,6.43-3.13,10.17-3.13,6.09,0,9.46,3.48,9.46,10.78v13.62h-5.76l-.51-2.44h-.18c-2,1.76-4.25,3.02-6.93,3.02-4.34,0-7.1-3.17-7.1-7.18ZM46.11,27.76v-4.16c-5.02.68-6.66,2.11-6.66,3.91,0,1.54,1.06,2.29,2.73,2.29s2.67-.79,3.92-2.04Z"/>
      <path class="cls-2" d="M60.37,22.28l-6.88-11.42h7.56l2.12,3.85c.65,1.33,1.36,2.73,2.02,4.06h.19c.51-1.33,1.12-2.73,1.63-4.06l1.63-3.85h7.31l-6.88,12.23,7.32,11.59h-7.56l-2.34-3.94c-.75-1.36-1.47-2.8-2.23-4.14h-.19c-.6,1.34-1.23,2.74-1.83,4.14l-1.85,3.94h-7.31l7.32-12.4Z"/>
      <path class="cls-2" d="M73.93,22.78c0-7.92,5.83-12.49,12.41-12.49,2.93,0,5.18,1.04,6.96,2.56l-3.33,4.54c-1.14-.97-2.09-1.41-3.23-1.41-3.39,0-5.57,2.68-5.57,6.8s2.27,6.78,5.34,6.78c1.56,0,3.06-.77,4.3-1.76l2.76,4.62c-2.32,2.04-5.27,2.83-7.85,2.83-6.65,0-11.78-4.58-11.78-12.48Z"/>
      <path class="cls-2" d="M91.4,22.78c0-7.92,5.57-12.49,11.6-12.49s11.6,4.58,11.6,12.49-5.57,12.48-11.6,12.48-11.6-4.58-11.6-12.48ZM107.37,22.78c0-4.12-1.45-6.8-4.37-6.8s-4.37,2.68-4.37,6.8,1.45,6.78,4.37,6.78,4.37-2.66,4.37-6.78Z"/>
      <path class="cls-2" d="M115.82,10.86h5.76l.51,4.16h.17c1.73-3.18,4.34-4.74,6.77-4.74,1.36,0,2.15.17,2.84.48l-1.17,6.09c-.85-.21-1.55-.38-2.57-.38-1.8,0-3.98,1.16-5.25,4.4v13.8h-7.06V10.86Z"/>
      <path class="cls-2" d="M129.46,22.78c0-7.73,5.51-12.49,11.23-12.49,6.78,0,10.14,4.93,10.14,11.43,0,1.27-.16,2.54-.29,3.12h-14.25c.63,3.46,3,5.04,6.18,5.04,1.8,0,3.42-.55,5.15-1.56l2.33,4.25c-2.44,1.69-5.63,2.68-8.45,2.68-6.79,0-12.05-4.59-12.05-12.48ZM144.81,20.17c0-2.62-1.14-4.5-3.96-4.5-2.23,0-4.15,1.5-4.63,4.5h8.59Z"/>
    </g>
    <path class="cls-1" d="M150.5,10.29h22.85v3.99h-22.85v-3.99Z"/>
    <path class="cls-1" d="M0,30.73h22.85v3.99H0v-3.99Z"/>
  </g>
</svg>